<svg width="41" height="32" viewBox="0 0 41 32" fill="none" xmlns="http://www.w3.org/2000/svg">
<path d="M21.164 13.1232C21.164 14.3283 20.4291 15.0215 19.1333 15.0215H17.4316V11.2261H19.1409C20.4291 11.2261 21.164 11.9119 21.164 13.1232ZM24.4905 17.5073C24.4905 18.0884 24.9947 18.4665 25.7863 18.4665C26.7947 18.4665 27.551 17.83 27.551 16.9325V16.393L25.9048 16.4976C24.9733 16.5606 24.4905 16.9047 24.4905 17.5073ZM40.3377 3.36179V28.0124C40.3377 29.8679 38.8326 31.3742 36.9759 31.3742H3.36179C1.50631 31.3742 0 29.8691 0 28.0124V3.36179C0 1.50631 1.50505 0 3.36179 0H36.9759C38.8314 0 40.3377 1.50505 40.3377 3.36179ZM8.95091 11.6383C9.53957 11.6875 10.127 11.3446 10.4988 10.9097C10.8631 10.461 11.1013 9.85974 11.0383 9.24965C10.5202 9.27108 9.87612 9.59251 9.50427 10.0412C9.16772 10.427 8.88158 11.0497 8.95091 11.6383ZM13.1951 16.8556C13.1812 16.8417 11.8224 16.3236 11.8085 14.7543C11.7946 13.4446 12.8799 12.8144 12.9291 12.7791C12.3127 11.869 11.3597 11.7707 11.0308 11.7492C10.1761 11.7001 9.44755 12.232 9.04166 12.232C8.62821 12.232 8.01182 11.7694 7.33997 11.7845C6.46517 11.7984 5.64584 12.2963 5.20466 13.0866C4.28701 14.6699 4.96642 17.0081 5.85635 18.2964C6.28996 18.9329 6.8156 19.6338 7.50258 19.606C8.153 19.5783 8.41267 19.1863 9.19671 19.1863C9.98831 19.1863 10.2127 19.606 10.8984 19.5997C11.6131 19.5859 12.0543 18.9632 12.4955 18.3253C12.9782 17.5968 13.1812 16.8972 13.1963 16.8543L13.1951 16.8556ZM22.6766 13.1169C22.6766 11.2539 21.3808 9.97948 19.5317 9.97948H15.9468V19.5317H17.4316V16.2682H19.4838C21.3607 16.2682 22.6766 14.9799 22.6766 13.1169ZM28.9792 14.7757C28.9792 13.3967 27.8725 12.5068 26.1783 12.5068C24.6027 12.5068 23.4405 13.4106 23.3977 14.6421H24.7351C24.8472 14.0535 25.393 13.669 26.1355 13.669C27.0456 13.669 27.5498 14.0888 27.5498 14.8741V15.3997L25.7006 15.5119C23.9775 15.6165 23.0472 16.3249 23.0472 17.5501C23.0472 18.7892 24.0065 19.6085 25.3855 19.6085C26.317 19.6085 27.1779 19.1396 27.57 18.3896H27.5977V19.538H28.9704V14.7757H28.9792ZM36.1364 12.5976H34.6313L32.8881 18.2422H32.8603L31.117 12.5976H29.5553L32.0687 19.5518L31.9364 19.9716C31.712 20.6863 31.3414 20.9661 30.6834 20.9661C30.5637 20.9661 30.3406 20.9523 30.2485 20.9447V22.093C30.333 22.1208 30.7036 22.1283 30.8158 22.1283C32.2654 22.1283 32.9448 21.5749 33.5397 19.901L36.1364 12.5976Z" fill="black"/>
</svg>
