<svg width="86" height="23" viewBox="0 0 86 23" fill="none" xmlns="http://www.w3.org/2000/svg">
<mask id="mask0_94_1278" style="mask-type:luminance" maskUnits="userSpaceOnUse" x="0" y="0" width="86" height="23">
<path d="M0.522949 0.75H85.2601V22.42H0.522949V0.75Z" fill="white"/>
</mask>
<g mask="url(#mask0_94_1278)">
<path fill-rule="evenodd" clip-rule="evenodd" d="M27.5261 5.60352H32.1639C33.7242 5.60352 34.8945 6.03692 35.588 6.86038C36.1948 7.59716 36.3682 8.68066 36.1515 10.0242C35.7181 13.1013 33.941 14.7049 30.8202 14.7049H29.3465C29.0431 14.7049 28.7397 14.9216 28.6964 15.2683L28.2629 18.6489C28.2629 18.9956 27.9595 19.2556 27.6561 19.2556H25.4022C25.3452 19.2502 25.2898 19.2335 25.2393 19.2066C25.1887 19.1796 25.144 19.1429 25.1077 19.0986C25.0715 19.0543 25.0443 19.0032 25.0279 18.9483C25.0115 18.8934 25.0062 18.8358 25.0121 18.7789L26.9193 6.21028C26.9626 5.82022 27.2227 5.60352 27.5694 5.60352H27.5261ZM29.9533 11.9745C31.2103 11.9745 32.4673 11.9745 32.7273 10.1976C32.814 9.5908 32.7273 9.11406 32.5106 8.81068C32.0772 8.33394 31.297 8.33394 30.4735 8.33394H30.1267C30.0328 8.34151 29.944 8.37945 29.8736 8.442C29.8032 8.50456 29.7551 8.58834 29.7366 8.68066L29.2598 11.9745H29.9533ZM43.9534 10.1542H46.2073C46.4673 10.1542 46.6407 10.3709 46.5974 10.5876L45.3837 18.6489C45.3404 18.9956 45.0803 19.2556 44.7336 19.2556H42.7398C42.4797 19.2556 42.3063 18.9956 42.3063 18.7789L42.4363 18.1288C42.4363 18.1288 41.3094 19.429 39.3156 19.429C38.1453 19.429 37.1484 19.0823 36.4982 18.2588C36.1122 17.7521 35.8358 17.1706 35.6866 16.5513C35.5374 15.932 35.5186 15.2885 35.6314 14.6616C36.0648 11.8878 38.232 9.89418 40.6592 9.89418C41.7428 9.89418 42.8264 10.1542 43.3466 10.891L43.4766 11.151L43.5633 10.5009C43.5835 10.4016 43.638 10.3125 43.7172 10.2491C43.7964 10.1857 43.8953 10.1522 43.9967 10.1542H43.9534ZM40.5726 16.9586C41.8729 16.9586 42.8698 16.0918 43.0865 14.7049C43.1732 14.0548 43.0865 13.4914 42.6964 13.058C42.3497 12.6246 41.8295 12.4079 41.2227 12.4079C39.9224 12.4079 38.8822 13.3614 38.7088 14.6616C38.5787 15.3117 38.7088 15.9184 39.0555 16.3085C39.3589 16.7419 39.9224 16.9586 40.5726 16.9586Z" fill="#253B80"/>
<path d="M58.1698 10.1543H55.9159C55.6992 10.1543 55.4825 10.241 55.3958 10.4577L52.275 15.2251L50.9747 10.631C50.8447 10.3277 50.5846 10.1543 50.3246 10.1543H48.114C47.8106 10.1543 47.6806 10.4143 47.7239 10.6744L50.1945 18.3022L47.8973 21.7694C47.6806 22.0295 47.8973 22.4195 48.2007 22.4195H50.4546C50.6713 22.4195 50.888 22.2895 50.9747 22.1161L58.4732 10.7611C58.6899 10.501 58.4732 10.1543 58.1698 10.1543Z" fill="#253B80"/>
<path fill-rule="evenodd" clip-rule="evenodd" d="M60.9442 5.60352H65.6253C67.229 5.60352 68.3993 6.03692 69.0928 6.86038C69.6563 7.59716 69.873 8.68066 69.6563 10.0242C69.2228 13.1013 67.4024 14.7049 64.325 14.7049H62.8513C62.5045 14.7049 62.2445 14.9216 62.2011 15.2683L61.6377 18.8222C61.6377 19.0823 61.4209 19.2556 61.2042 19.2556H58.777C58.5602 19.2556 58.3435 18.9956 58.4302 18.7789L60.294 6.21028C60.3373 5.82022 60.6407 5.60352 60.9442 5.60352ZM63.4148 11.9745C64.6284 11.9745 65.9287 11.9745 66.1888 10.1976C66.2754 9.5908 66.1888 9.11406 65.972 8.81068C65.5386 8.33394 64.7584 8.33394 63.8915 8.33394H63.5881C63.4867 8.33189 63.3878 8.36547 63.3086 8.42882C63.2294 8.49217 63.175 8.58129 63.1547 8.68066L62.7213 11.9745H63.4148ZM77.4148 10.1542H79.6687C79.8854 10.1542 80.1021 10.3709 80.0588 10.5876L78.8451 18.6489C78.7585 18.9956 78.4984 19.2556 78.195 19.2556H76.1578C75.8978 19.2556 75.7244 18.9956 75.7677 18.7789L75.8544 18.1288C75.8544 18.1288 74.7708 19.429 72.777 19.429C71.6067 19.429 70.6098 19.0823 69.9597 18.2588C69.5737 17.7521 69.2973 17.1706 69.148 16.5513C68.9988 15.932 68.98 15.2885 69.0928 14.6616C69.5262 11.8878 71.6501 9.89418 74.1207 9.89418C75.2043 9.89418 76.2879 10.1542 76.7646 10.891L76.938 11.151L77.0247 10.5009C77.0432 10.4086 77.0913 10.3248 77.1617 10.2623C77.2321 10.1997 77.3209 10.1618 77.4148 10.1542ZM73.9906 16.9586C75.291 16.9586 76.2879 16.0918 76.5046 14.7049C76.6346 14.0548 76.5046 13.4914 76.1578 13.058C75.8111 12.6246 75.291 12.4079 74.6408 12.4079C73.3405 12.4079 72.3436 13.3614 72.1269 14.6616C72.0402 15.3117 72.1269 15.9184 72.4736 16.3085C72.8204 16.7419 73.3405 16.9586 73.9906 16.9586Z" fill="#179BD7"/>
<path d="M82.3128 5.95032L80.3623 18.779C80.3623 18.9957 80.5357 19.2124 80.7957 19.2124H82.7029C83.0063 19.2124 83.3097 18.9957 83.353 18.6489L85.2168 6.08034C85.2602 5.8203 85.0868 5.6036 84.8701 5.6036H82.7029C82.6015 5.60156 82.5026 5.63514 82.4234 5.69849C82.3442 5.76184 82.2897 5.85096 82.2694 5.95032H82.3128Z" fill="#179BD7"/>
<path d="M5.50746 21.6831L5.85421 19.2994H1.25977L3.86039 1.61672C3.87121 1.58684 3.88846 1.5597 3.91093 1.53724C3.93341 1.51477 3.96054 1.49751 3.99043 1.4867C4.02794 1.45857 4.07357 1.44336 4.12046 1.44336H10.492C12.6592 1.44336 14.0895 1.87676 14.8697 2.83024C15.2366 3.21126 15.4785 3.69506 15.5632 4.21712C15.6754 4.83326 15.6754 5.4646 15.5632 6.08074V6.60082L15.9533 6.86086C16.2567 7.03422 16.4734 7.20758 16.6902 7.42428C16.9909 7.83225 17.1846 8.30906 17.2536 8.81116C17.3564 10.3073 17.0571 11.8036 16.3868 13.1452C16.0725 13.6954 15.6489 14.1754 15.142 14.5555C14.6351 14.9357 14.0556 15.2079 13.4394 15.3555C12.8326 15.5289 12.1391 15.6155 11.3589 15.6155H10.8387C10.492 15.6155 10.1452 15.7456 9.88518 16.0056C9.60617 16.2533 9.42224 16.5904 9.36506 16.9591L9.32171 17.1758L8.67156 21.3798V21.5098L8.62821 21.5965C8.61972 21.6115 8.60694 21.6237 8.59149 21.6314C8.57605 21.6391 8.55865 21.642 8.54152 21.6398H5.46411L5.50746 21.6831Z" fill="#253B80"/>
<path d="M16.3435 6.25391L16.2568 6.68731C15.3899 11.1947 12.4859 12.7549 8.80163 12.7549H6.89451C6.46107 12.7549 6.07097 13.145 6.02763 13.6217L5.03072 20.036L4.77066 21.813C4.72732 22.1597 4.94403 22.4197 5.24744 22.4197H8.58491C9.01835 22.4197 9.32176 22.1163 9.40845 21.7263V21.5096L10.0586 17.3489V17.1322C10.09 16.9256 10.1949 16.7372 10.3542 16.6018C10.5135 16.4664 10.7164 16.3931 10.9255 16.3955H11.3589C14.6097 16.3955 17.167 15.0086 17.9038 11.0213C18.2072 9.37439 18.0772 7.98751 17.2537 6.99069C16.9981 6.69132 16.6895 6.44156 16.3435 6.25391Z" fill="#179BD7"/>
<path d="M15.4329 5.86404C15.1625 5.78852 14.8874 5.73061 14.6094 5.69066C14.0649 5.60182 13.514 5.55833 12.9624 5.56063H7.89113C7.7611 5.56063 7.67441 5.56063 7.54438 5.64732C7.42628 5.7142 7.32553 5.80787 7.25025 5.92079C7.17497 6.03372 7.12725 6.16274 7.11094 6.29748L6.02734 13.4059V13.5792C6.04891 13.3647 6.14967 13.1658 6.30997 13.0216C6.47026 12.8773 6.67857 12.798 6.89422 12.799H8.80135C12.4856 12.799 15.3896 11.1953 16.2565 6.64423L16.2998 6.25413C16.0779 6.13297 15.8459 6.03145 15.6063 5.95073C15.549 5.92097 15.4912 5.89207 15.4329 5.86404Z" fill="#222D65"/>
<path d="M7.11105 6.29752C7.12736 6.1628 7.17508 6.03378 7.25036 5.92087C7.32564 5.80795 7.42639 5.71429 7.54449 5.64742L7.89124 5.56074H12.9625C13.5259 5.56074 14.0894 5.60408 14.6095 5.69076C14.9482 5.75094 15.2815 5.83789 15.6064 5.9508L16.3433 6.25418C16.56 4.56392 16.3433 3.43708 15.4764 2.35358C14.4362 1.27008 12.7024 0.75 10.4919 0.75H4.12033C3.68689 0.75 3.25345 1.09672 3.21011 1.57346L0.522793 19.3429C0.479449 19.6896 0.739512 20.0363 1.08626 20.0363H5.03055L6.02746 13.4053L7.11105 6.29752Z" fill="#253B80"/>
</g>
</svg>
