<svg width="30" height="31" viewBox="0 0 30 31" fill="none" xmlns="http://www.w3.org/2000/svg">
<g clip-path="url(#clip0_94_1095)">
<g clip-path="url(#clip1_94_1095)">
<g clip-path="url(#clip2_94_1095)">
<path d="M11.4843 0.737436C11.0389 0.878061 10.6171 1.06556 10.5468 1.15931C10.1769 1.4023 9.77443 1.59168 9.35144 1.72181C8.03894 2.214 7.61706 2.65931 7.38269 3.76087C7.28894 4.20619 7.00769 4.86244 6.77331 5.214C6.51314 5.57024 6.35878 5.99269 6.328 6.43275C6.328 6.87806 6.21081 7.04212 5.88269 7.04212C5.46081 7.04212 4.40613 6.01087 4.14831 5.35462C3.82019 4.464 1.03113 9.12806 0.374876 11.6359C-0.117146 14.1748 -0.117146 16.7845 0.374876 19.3234C1.71081 24.4796 6.18738 28.9327 11.2733 30.1281C13.7377 30.5735 16.262 30.5735 18.7264 30.1281C24.9139 28.6515 29.9764 22.4874 29.9999 16.3937V15.0577L28.0546 14.8937C26.2968 14.7531 24.3749 14.8937 24.3749 15.1749C24.3749 15.2218 24.5389 15.5968 24.7499 15.9718C24.9374 16.3702 25.078 16.7218 25.0311 16.7452C24.703 16.9562 23.578 17.3546 23.3436 17.3546C23.1796 17.3546 22.7577 16.7218 22.4296 15.9484C22.0077 14.9874 21.703 14.589 21.4921 14.6827C21.2108 14.7765 21.2577 15.0577 21.703 16.1359C22.5233 18.1281 22.453 18.8077 21.2343 20.2843C20.2733 21.4796 20.2264 21.6202 20.0624 23.4952C19.8046 26.589 19.6171 27.1749 18.4686 28.1593C17.2968 29.1906 17.1796 29.214 16.4061 28.6281C15.9139 28.2296 15.7968 27.8312 15.4452 25.5109C15.2343 24.0577 14.953 22.4406 14.7889 21.9015C14.4139 20.5656 13.3124 19.089 12.4921 18.9015C10.1483 18.339 10.078 18.2921 9.703 17.4015C9.35144 16.5577 9.39831 14.7765 9.79675 14.1437C9.8905 14.0031 10.7577 13.5577 11.7186 13.1827C13.6639 12.4093 13.3827 12.4093 17.9764 13.4874C18.7733 13.6749 19.8514 13.839 20.3905 13.839C21.2577 13.839 21.3749 13.7687 21.703 13.0187C22.1483 11.964 22.1249 11.7296 21.5858 11.7296C21.2577 11.7296 21.1171 11.4718 20.953 10.4874L20.7421 9.26869H19.5702C18.5155 9.26869 18.3983 9.31556 18.328 9.80775C18.2811 10.1124 18.4218 10.5577 18.6561 10.8156C18.8671 11.0499 18.9374 11.2609 18.7968 11.2609C18.6561 11.2609 18.5858 11.4249 18.6561 11.6124C18.7499 11.8234 18.6561 11.964 18.4452 11.964C18.2343 11.964 17.9764 11.6124 17.8358 11.1906C17.4843 10.1359 16.5702 9.62025 16.0077 10.1593C15.8579 10.2697 15.6867 10.3475 15.5051 10.3879C15.3235 10.4282 15.1354 10.4302 14.953 10.3937C14.4374 10.2999 14.2499 10.3937 14.0389 10.8859C13.7343 11.5187 13.453 11.6359 12.9139 11.2843C12.4452 10.9796 13.2889 9.92494 14.1327 9.73744C14.5077 9.64369 15.0468 9.31556 15.3046 8.98744C15.5858 8.65931 16.3593 8.16712 17.0155 7.86244C17.6718 7.55775 18.3046 7.20619 18.3983 7.04212C18.7264 6.5265 19.1718 4.464 18.9843 4.464C18.3749 4.464 17.6014 5.04994 17.6483 5.47181C17.6718 5.72962 17.5546 5.98744 17.4139 6.03431C17.2499 6.10462 17.1093 5.98744 17.1093 5.7765C17.1093 5.28431 16.7343 5.28431 16.5468 5.7765C16.4296 6.08119 16.3358 6.08119 15.8202 5.70619C15.5155 5.47181 15.2343 5.214 15.2343 5.12025C15.2343 5.0265 15.9374 4.37025 16.7811 3.66712C18.2343 2.42494 18.3749 2.35462 19.5936 2.35462C20.6952 2.35462 20.8593 2.28431 20.8593 1.88587C20.8593 1.13587 18.8905 0.643686 15.3514 0.573373C14.0601 0.513271 12.7659 0.568175 11.4843 0.737436Z" fill="black"/>
</g>
</g>
</g>
<defs>
<clipPath id="clip0_94_1095">
<rect width="30" height="30" fill="white" transform="translate(0 0.479492)"/>
</clipPath>
<clipPath id="clip1_94_1095">
<rect width="30" height="30" fill="white" transform="translate(0 0.479492)"/>
</clipPath>
<clipPath id="clip2_94_1095">
<rect width="30" height="30" fill="white" transform="translate(0 0.479492)"/>
</clipPath>
</defs>
</svg>
